<?xml version="1.0" encoding="utf-8"?>
<!-- Generator: Adobe Illustrator 24.0.0, SVG Export Plug-In . SVG Version: 6.00 Build 0)  -->
<svg version="1.1" id="Capa_1" xmlns="http://www.w3.org/2000/svg" xmlns:xlink="http://www.w3.org/1999/xlink" x="0px" y="0px"
	 viewBox="0 0 100 100" style="enable-background:new 0 0 100 100;" xml:space="preserve">
<style type="text/css">
	.st0{clip-path:url(#SVGID_1_);fill:#7BCBE2;}
	.st1{clip-path:url(#SVGID_1_);fill:#FBD300;}
	.st2{clip-path:url(#SVGID_1_);fill:#076633;}
	.st3{clip-path:url(#SVGID_1_);fill:#B6C544;}
	.st4{clip-path:url(#SVGID_1_);fill:#FFFFFF;}
</style>
<g id="Logo">
	<defs>
		<path id="SVGID_3_" d="M0,50c0,27.61,22.39,50,50,50c27.61,0,50-22.39,50-50c0-27.61-22.39-50-50-50C22.39,0,0,22.39,0,50"/>
	</defs>
	<clipPath id="SVGID_1_">
		<use xlink:href="#SVGID_3_"  style="overflow:visible;"/>
	</clipPath>
	<path class="st0" d="M98.24,63.18C99.39,58.98,100,54.56,100,50c0-27.61-22.39-50-50-50C22.39,0,0,22.39,0,50
		c0,4.56,0.61,8.98,1.76,13.18c14.34-5.71,30.77-8.96,48.24-8.96C67.47,54.22,83.91,57.47,98.24,63.18"/>
	<path class="st1" d="M104.17,59.81c0,15.96-12.94,28.9-28.9,28.9s-28.9-12.94-28.9-28.9c0-15.96,12.94-28.9,28.9-28.9
		S104.17,43.84,104.17,59.81"/>
	<path class="st2" d="M14.69,85.4c10.99-6.75,23.57-12.16,37.32-15.7c15.61-4.02,31.06-5.21,45.45-3.94
		c0.28-0.85,0.54-1.72,0.78-2.59C83.9,57.47,67.47,54.22,50,54.22c-17.47,0-33.91,3.25-48.24,8.96C4.08,71.71,8.61,79.33,14.69,85.4
		"/>
	<path class="st3" d="M97.46,65.76c-14.38-1.27-29.84-0.08-45.45,3.94c-13.75,3.54-26.33,8.95-37.32,15.7
		C23.74,94.42,36.22,100,50,100C72.11,100,90.86,85.65,97.46,65.76"/>
	<path class="st4" d="M27.51,30.8c0.01,0,0.01,0,0.02-0.01c2.04-0.75,3.45-2.2,4.55-4.02c0.89-1.47,1.32-3.09,1.62-4.77
		c3.23,3.4,2.53,11.15-3.67,13.36c0.79,0.01,1.45-0.2,2.09-0.47c0.44-0.18,0.82-0.26,1.31-0.02c1.46,0.72,3,0.59,4.54,0.24
		c0.66-0.15,0.7-0.11,0.78,0.57c0.15,1.17-0.25,2.13-1.14,2.88c-0.22,0.19-0.46,0.36-0.7,0.51c-1.1,0.68-1.1,0.68-1.99-0.25
		c-0.63-0.66-1.37-1.18-2.21-1.55c-0.25-0.11-0.48-0.09-0.73-0.04c-2.94,0.61-5.41-0.19-7.43-2.42c-0.36-0.4-0.76-0.76-1.14-1.13
		c-1.12-1.1-2.33-1.85-3.9-0.83c-0.13-0.25-0.09-0.46,0.03-0.59c0.4-0.42,0.43-0.95,0.56-1.47c0.18-0.7,0.82-1.09,1.72-1.11
		c0.6-0.02,1.14,0.19,1.66,0.46c0.38,0.21,0.75,0.46,1.27,0.53c-0.24-2.39-0.84-4.62-2.13-6.71c0.74,0.05,1.36,0.34,1.96,0.65
		c1.25,0.63,2.32,1.5,3.14,2.61c0.45,0.61,0.97,1.18,1.29,1.89c0.08,0.18,0.03,0.4-0.14,0.52c-0.48,0.33-0.96,0.68-1.44,1.02
		c-0.06,0.04-0.21,0.13-0.24,0.16C27.31,30.82,27.41,30.81,27.51,30.8"/>
</g>
</svg>
